<svg width="60" height="60" viewBox="0 0 60 60" fill="none" xmlns="http://www.w3.org/2000/svg">
<circle cx="30" cy="30" r="30" fill="white"/>
<rect x="15.9234" y="12.2913" width="27.3896" height="32.264" fill="black"/>
<path d="M43.5375 9.27637H15.2287C14.2049 9.27637 13.223 9.6746 12.4991 10.3835C11.7751 11.0923 11.3684 12.0538 11.3684 13.0562V40.7753C11.3684 41.7778 11.7751 42.7392 12.4991 43.4481C13.223 44.157 14.2049 44.5552 15.2287 44.5552H26.2667V32.5612H21.2001V26.9158H26.2667V22.613C26.2667 17.7189 29.2424 15.0155 33.7999 15.0155C35.9826 15.0155 38.265 15.3966 38.265 15.3966V20.2002H35.7502C33.2724 20.2002 32.4995 21.7059 32.4995 23.2501V26.9158H38.031L37.1463 32.5612H32.4995V44.5552H43.5375C44.5614 44.5552 45.5432 44.157 46.2672 43.4481C46.9911 42.7392 47.3978 41.7778 47.3978 40.7753V13.0562C47.3978 12.0538 46.9911 11.0923 46.2672 10.3835C45.5432 9.6746 44.5614 9.27637 43.5375 9.27637V9.27637Z" fill="white"/>
</svg>
