<svg width="171" height="162" viewBox="0 0 171 162" fill="none" xmlns="http://www.w3.org/2000/svg">
<g clip-path="url(#clip0)">
<path d="M90.5506 69.6063C90.7819 68.699 91.0132 67.7916 91.2446 66.8843C90.9875 67.7916 90.7562 68.699 90.5506 69.6063Z" fill="black"/>
<path d="M75.4374 65.977C75.4888 65.8214 75.5402 65.6399 75.5659 65.4844C75.5402 65.6399 75.4888 65.8214 75.4374 65.977Z" fill="black"/>
<path d="M86.5152 51.1223C86.0526 53.2999 85.6414 55.5035 85.1787 57.7589C84.639 60.5587 84.0478 63.4622 83.4567 66.3398C83.3796 66.6768 83.3024 67.0138 83.2253 67.3508C84.4076 62.8141 85.2815 58.0181 86.1811 52.9629C86.2839 52.3408 86.3867 51.7186 86.5152 51.1223Z" fill="black"/>
<path d="M78.7788 49.6448C78.3161 51.8483 77.8792 54.0519 77.4679 56.2036C76.9282 58.9775 76.3627 61.8291 75.7715 64.6549C75.7201 64.94 75.643 65.1993 75.5916 65.4844C76.7225 61.207 77.5707 56.5147 78.4446 51.5372C78.5474 50.9151 78.6759 50.267 78.7788 49.6448Z" fill="black"/>
<path d="M103.042 5.75516C85.6668 14.4138 81.7857 32.8718 78.7785 49.6447C78.6757 50.2669 78.5472 50.915 78.4444 51.5372C77.5705 56.5146 76.7223 61.2069 75.5914 65.4844C75.5657 65.6399 75.5142 65.8214 75.4885 65.977C74.1006 71.8877 71.8902 76.7355 66.4669 80.8574C62.1231 84.1498 56.8284 85.5756 51.9449 86.12V94.1047C58.1906 93.5084 65.2589 91.6937 71.1705 87.2088C79.0098 81.2722 81.7343 73.9097 83.225 67.3509C83.3022 67.0139 83.3793 66.6769 83.4564 66.3399C84.0732 63.4623 84.6387 60.5588 85.1785 57.759C85.6154 55.5036 86.0523 53.3 86.515 51.1224C87.1576 47.5449 87.8258 43.9674 88.6483 40.4935C91.3985 28.8017 95.7937 18.2247 106.537 12.8584C111.549 10.3697 118.746 8.60682 126.174 7.95871V0C117.487 0.674028 109.133 2.72204 103.042 5.75516Z" fill="black"/>
<path d="M91.2189 66.8843C92.6582 61.155 93.8405 55.4517 95.0743 49.4892C95.4598 47.5967 95.8453 45.7302 96.2566 43.8377C96.308 43.6303 96.3337 43.4488 96.3851 43.2415C95.2285 47.493 94.3032 52.1075 93.4036 56.5665C92.7353 60.0144 92.0414 63.4882 91.2189 66.8843Z" fill="black"/>
<path d="M108.542 21.232C100.832 27.0649 97.9786 35.9828 96.3851 43.2416C96.3337 43.449 96.308 43.6305 96.2566 43.8378C95.8453 45.7303 95.4598 47.6228 95.0742 49.4893C93.8405 55.4519 92.6582 61.1552 91.2188 66.8844C91.0132 67.7918 90.7819 68.6991 90.5249 69.6065C87.5177 80.9612 82.7884 91.2272 71.8904 96.6454C66.4929 99.3415 59.3732 101.078 51.8937 101.623V109.556C60.5555 108.985 68.986 106.937 75.3603 103.749C90.3964 96.2565 95.7425 82.0241 99.0581 67.7658C100.42 62.1662 101.603 56.5666 102.734 51.1225C103.119 49.256 103.505 47.3895 103.916 45.497C105.278 39.0937 107.437 31.9646 113.246 27.5575C117.101 24.628 121.728 23.1763 126.123 22.5023V14.4917C120.34 15.2435 113.966 17.11 108.542 21.232Z" fill="black"/>
<path d="M11.0522 160.16C9.86983 161.353 8.50759 161.923 6.96543 161.923C5.98873 161.923 5.08913 161.716 4.24094 161.327C3.39276 160.938 2.64738 160.393 2.03051 159.719C1.41365 159.045 0.899594 158.242 0.539756 157.308C0.179919 156.375 0 155.39 0 154.327C0 153.316 0.179919 152.357 0.539756 151.45C0.899594 150.542 1.41365 149.765 2.05622 149.091C2.69878 148.416 3.44416 147.872 4.31805 147.483C5.19194 147.094 6.14294 146.887 7.14535 146.887C8.53329 146.887 9.71562 147.172 10.6923 147.768C11.669 148.365 12.4144 149.142 12.9028 150.127L10.7694 151.709C10.4096 150.983 9.86983 150.413 9.20156 150.024C8.53329 149.635 7.81362 149.428 7.01683 149.428C6.39997 149.428 5.83451 149.557 5.32046 149.816C4.8064 150.076 4.36946 150.439 4.00962 150.905C3.64978 151.372 3.36705 151.89 3.16143 152.487C2.95581 153.083 2.853 153.705 2.853 154.379C2.853 155.079 2.95581 155.727 3.18713 156.323C3.41846 156.92 3.70119 157.464 4.08673 157.905C4.47227 158.345 4.93492 158.708 5.44897 158.968C5.98873 159.227 6.55419 159.356 7.17105 159.356C8.5847 159.356 9.86983 158.682 11.0265 157.334V156.297H8.09635V154.198H13.4168V161.819H11.0522V160.16Z" fill="black"/>
<path d="M32.2569 159.304V161.819H22.0529V147.016H32.0513V149.531H24.9059V153.108H31.1003V155.441H24.9059V159.304H32.2569Z" fill="black"/>
<path d="M51.6624 149.556H46.9588V161.844H44.1315V149.556H39.4279V147.042H51.6624V149.556Z" fill="black"/>
<path d="M79.0358 150.905C78.9329 150.801 78.753 150.671 78.496 150.516C78.239 150.36 77.9305 150.179 77.5707 150.023C77.2109 149.868 76.7996 149.738 76.3884 149.608C75.9514 149.505 75.5145 149.453 75.0776 149.453C74.2808 149.453 73.7153 149.608 73.3298 149.894C72.9442 150.179 72.7386 150.593 72.7386 151.112C72.7386 151.423 72.8157 151.682 72.9442 151.864C73.0727 152.045 73.3041 152.253 73.5868 152.408C73.8695 152.564 74.2037 152.693 74.6406 152.823C75.0518 152.953 75.5402 153.082 76.1057 153.212C76.8253 153.419 77.4679 153.627 78.0591 153.834C78.6502 154.067 79.1386 154.327 79.5498 154.664C79.9611 155.001 80.2695 155.389 80.5008 155.856C80.7321 156.323 80.8349 156.893 80.8349 157.567C80.8349 158.371 80.6807 159.045 80.398 159.589C80.0896 160.159 79.704 160.6 79.19 160.963C78.6759 161.3 78.1105 161.559 77.4422 161.715C76.7996 161.87 76.1057 161.948 75.386 161.948C74.2808 161.948 73.2013 161.793 72.1217 161.456C71.0422 161.119 70.0912 160.652 69.2173 160.03L70.4768 157.541C70.6053 157.671 70.8366 157.826 71.145 158.034C71.4792 158.241 71.839 158.448 72.3017 158.63C72.7386 158.837 73.227 158.993 73.7667 159.148C74.3065 159.278 74.8462 159.356 75.4117 159.356C76.9795 159.356 77.7763 158.837 77.7763 157.826C77.7763 157.515 77.6992 157.23 77.5193 157.023C77.3394 156.789 77.0824 156.608 76.7482 156.426C76.4141 156.245 76.0285 156.115 75.5402 155.96C75.0776 155.83 74.5378 155.675 73.9723 155.493C73.2784 155.286 72.6615 155.078 72.1475 154.845C71.6334 154.612 71.1965 154.352 70.8623 154.041C70.5282 153.73 70.2712 153.367 70.0912 152.953C69.9113 152.538 69.8342 152.045 69.8342 151.475C69.8342 150.723 69.9627 150.049 70.2455 149.479C70.5282 148.882 70.9137 148.416 71.4021 148.027C71.8904 147.638 72.4559 147.353 73.0984 147.146C73.741 146.938 74.435 146.834 75.1804 146.834C76.2085 146.834 77.1595 146.99 78.0334 147.327C78.9072 147.664 79.6526 148.027 80.2952 148.494L79.0358 150.905Z" fill="black"/>
<path d="M100.035 149.556H95.3313V161.844H92.504V149.556H87.8004V147.042H100.009V149.556H100.035Z" fill="black"/>
<path d="M109.699 147.016L113.323 154.145L116.999 147.016H120.083L114.737 156.66V161.844H111.909V156.634L106.589 147.042H109.699V147.016Z" fill="black"/>
<path d="M127.897 161.819V147.016H130.75V159.304H138.229V161.819H127.897Z" fill="black"/>
<path d="M146.171 161.819V147.016H149.024V161.819H146.171Z" fill="black"/>
<path d="M161.156 152.33V161.819H158.303V147.016H160.513L168.173 156.737V147.042H171.026V161.819H168.712L161.156 152.33Z" fill="black"/>
</g>
<defs>
<clipPath id="clip0">
<rect width="171" height="162" fill="white"/>
</clipPath>
</defs>
</svg>
