<svg width="60" height="60" viewBox="0 0 60 60" fill="none" xmlns="http://www.w3.org/2000/svg">
<circle cx="30" cy="30" r="30" fill="white"/>
<path d="M30.0033 22.5323C25.8023 22.5323 22.4137 25.8679 22.4137 30.0033C22.4137 34.1387 25.8023 37.4743 30.0033 37.4743C34.2043 37.4743 37.5929 34.1387 37.5929 30.0033C37.5929 25.8679 34.2043 22.5323 30.0033 22.5323ZM30.0033 34.8604C27.2885 34.8604 25.0691 32.6822 25.0691 30.0033C25.0691 27.3244 27.2819 25.1462 30.0033 25.1462C32.7247 25.1462 34.9375 27.3244 34.9375 30.0033C34.9375 32.6822 32.7181 34.8604 30.0033 34.8604V34.8604ZM39.6735 22.2267C39.6735 23.1955 38.8809 23.9693 37.9033 23.9693C36.9191 23.9693 36.1331 23.189 36.1331 22.2267C36.1331 21.2644 36.9257 20.4841 37.9033 20.4841C38.8809 20.4841 39.6735 21.2644 39.6735 22.2267ZM44.7002 23.9953C44.5879 21.661 44.0463 19.5933 42.3091 17.8898C40.5785 16.1862 38.478 15.653 36.1066 15.536C33.6627 15.3995 26.3373 15.3995 23.8933 15.536C21.5286 15.6465 19.4281 16.1797 17.6909 17.8833C15.9537 19.5868 15.4186 21.6545 15.2997 23.9888C15.161 26.3946 15.161 33.6055 15.2997 36.0113C15.412 38.3456 15.9537 40.4132 17.6909 42.1168C19.4281 43.8204 21.522 44.3536 23.8933 44.4706C26.3373 44.6071 33.6627 44.6071 36.1066 44.4706C38.478 44.3601 40.5785 43.8269 42.3091 42.1168C44.0397 40.4132 44.5813 38.3456 44.7002 36.0113C44.8389 33.6055 44.8389 26.4011 44.7002 23.9953V23.9953ZM41.5429 38.5926C41.0276 39.8671 40.0302 40.8489 38.729 41.3626C36.7804 42.1233 32.1566 41.9478 30.0033 41.9478C27.8499 41.9478 23.2196 42.1168 21.2776 41.3626C19.9829 40.8554 18.9855 39.8736 18.4637 38.5926C17.6909 36.6745 17.8692 32.123 17.8692 30.0033C17.8692 27.8836 17.6975 23.3256 18.4637 21.414C18.9789 20.1395 19.9763 19.1577 21.2776 18.644C23.2262 17.8833 27.8499 18.0588 30.0033 18.0588C32.1566 18.0588 36.787 17.8898 38.729 18.644C40.0236 19.1512 41.021 20.133 41.5429 21.414C42.3157 23.3321 42.1373 27.8836 42.1373 30.0033C42.1373 32.123 42.3157 36.681 41.5429 38.5926Z" fill="black"/>
</svg>
