<svg width="60" height="60" viewBox="0 0 60 60" fill="none" xmlns="http://www.w3.org/2000/svg">
<circle cx="30" cy="30" r="30" fill="white"/>
<path d="M42.6304 25.813L42.7116 25.3597C42.7862 24.9429 42.465 24.5602 42.0406 24.5602H36.4405L37.5956 18.1066C37.6702 17.6898 37.349 17.3071 36.9246 17.3071H36.463C36.303 17.3071 36.1481 17.3633 36.0255 17.4658C35.9028 17.5682 35.8202 17.7105 35.7921 17.8676L34.5942 24.5602H27.353L28.5081 18.1066C28.5827 17.6898 28.2615 17.3071 27.8371 17.3071H27.3756C27.2156 17.3071 27.0607 17.3633 26.938 17.4658C26.8154 17.5682 26.7327 17.7105 26.7046 17.8676L25.5068 24.5602H19.6632C19.5032 24.5602 19.3483 24.6163 19.2256 24.7188C19.103 24.8213 19.0203 24.9635 18.9922 25.1207L18.9111 25.574C18.8365 25.9907 19.1577 26.3735 19.5821 26.3735H25.1822L23.884 33.6265H18.0404C17.8804 33.6265 17.7256 33.6827 17.6029 33.7851C17.4802 33.8876 17.3976 34.0299 17.3695 34.187L17.2883 34.6403C17.2138 35.0571 17.5349 35.4398 17.9593 35.4398H23.5595L22.4043 41.8934C22.3298 42.3101 22.6509 42.6929 23.0753 42.6929H23.5369C23.6969 42.6929 23.8518 42.6367 23.9744 42.5342C24.0971 42.4318 24.1797 42.2895 24.2078 42.1324L25.4057 35.4398H32.6469L31.4918 41.8934C31.4172 42.3101 31.7384 42.6929 32.1628 42.6929H32.6244C32.7843 42.6929 32.9392 42.6367 33.0619 42.5342C33.1845 42.4318 33.2672 42.2895 33.2953 42.1324L34.4931 35.4398H40.3367C40.4967 35.4398 40.6516 35.3836 40.7742 35.2812C40.8969 35.1787 40.9795 35.0365 41.0076 34.8793L41.0888 34.426C41.1634 34.0092 40.8422 33.6265 40.4179 33.6265H34.8177L36.1159 26.3735H41.9594C42.1194 26.3735 42.2743 26.3173 42.397 26.2149C42.5197 26.1124 42.6023 25.9701 42.6304 25.813ZM32.9714 33.6265H25.7303L27.0285 26.3735H34.2697L32.9714 33.6265Z" fill="black"/>
</svg>
