<svg width="60" height="60" viewBox="0 0 60 60" fill="none" xmlns="http://www.w3.org/2000/svg">
<circle cx="30" cy="30" r="30" fill="white"/>
<rect x="19.1041" y="17.9814" width="27.7522" height="26.4307" fill="black"/>
<path d="M46.0401 14.0098H18.8947C16.8511 14.0098 15.193 15.7222 15.193 17.8328V45.8682C15.193 47.9788 16.8511 49.6912 18.8947 49.6912H46.0401C48.0837 49.6912 49.7417 47.9788 49.7417 45.8682V17.8328C49.7417 15.7222 48.0837 14.0098 46.0401 14.0098ZM42.269 26.6575C42.2844 26.8806 42.2844 27.1115 42.2844 27.3345C42.2844 34.2398 37.1947 42.1965 27.8943 42.1965C25.0255 42.1965 22.365 41.3363 20.1286 39.8549C20.5373 39.9027 20.9306 39.9186 21.347 39.9186C23.7145 39.9186 25.8892 39.0903 27.6244 37.6885C25.4034 37.6407 23.5372 36.1354 22.8971 34.0646C23.676 34.1841 24.3777 34.1841 25.1798 33.9691C22.8662 33.4832 21.1311 31.3806 21.1311 28.8398V28.7761C21.802 29.1664 22.5886 29.4053 23.4138 29.4372C22.72 28.9606 22.1513 28.3141 21.7584 27.5553C21.3655 26.7965 21.1606 25.949 21.1619 25.0885C21.1619 24.1168 21.4087 23.2248 21.8483 22.4522C24.3392 25.6222 28.0794 27.6929 32.2746 27.916C31.5574 24.3717 34.1254 21.4965 37.2101 21.4965C38.6676 21.4965 39.9786 22.1257 40.904 23.1452C42.0454 22.9222 43.1404 22.4841 44.1121 21.8868C43.7342 23.0974 42.9399 24.1168 41.8911 24.762C42.9091 24.6505 43.8962 24.3558 44.8062 23.9496C44.1198 24.9929 43.2561 25.9168 42.269 26.6575Z" fill="white"/>
</svg>
